# xmcd
#
# Track frame offsets: 
#        150
#        10890
#        28613
#        39127
#        57750
#        64072
#        77056
#        90300
#        114866
#        122850
#        134700
#        146265
#        163795
#        179557
#
# Disc length: 2642 seconds
#
# Revision: 1
# Processed by: cddbd v1.5.2PL0 Copyright (c) Steve Scherf et al.
# Submitted via: ExactAudioCopy v0.99pb3
#
DISCID=b20a500e
DTITLE=Britten Sinfonia - Moondog - Sidewalk Dances
DYEAR=2007
DGENRE=Jazz
TTITLE0=Single Foot
TTITLE1=Bumbo
TTITLE2=Sextet
TTITLE3=Dog Trot
TTITLE4=All is Loneliness
TTITLE5=Voices of Spring
TTITLE6=Rabbit hop
TTITLE7=Invocation
TTITLE8=Reedroy
TTITLE9=Double Bass Duo
TTITLE10=Good for Goodie
TTITLE11=Bird's Lament
TTITLE12=Theme and Variations
TTITLE13=Heath on the Heather
EXTD=YEAR: 2007
EXTT0=
EXTT1=
EXTT2=
EXTT3=
EXTT4=
EXTT5=
EXTT6=
EXTT7=
EXTT8=
EXTT9=
EXTT10=
EXTT11=
EXTT12=
EXTT13=
PLAYORDER=
